<?xml version="1.0" encoding="utf-8"?>
<!-- Generator: Adobe Illustrator 23.0.1, SVG Export Plug-In . SVG Version: 6.00 Build 0)  -->
<svg version="1.1" id="Layer_1" xmlns="http://www.w3.org/2000/svg" xmlns:xlink="http://www.w3.org/1999/xlink" x="0px" y="0px"
	 width="15.4980001px" height="15.4980001px" viewBox="0 0 15.4980001 15.4980001"
	 style="enable-background:new 0 0 15.4980001 15.4980001;" xml:space="preserve">
<style type="text/css">
	.st0{fill:#FEE565;}
	.st1{fill:#FDD62F;}
	.st2{fill:#1D1D1D;}
</style>
<circle class="st0" cx="7.7517633" cy="7.7515717" r="7.7482371"/>
<path class="st1" d="M1.3499037,8.4293537c0,2.3797703,0.979884,4.5195742,2.5696931,6.0594006
	C1.5798615,13.1588678,0,10.6391582,0,7.7494278C0,3.46982,3.4696901,0.000191,7.7492371,0.000191
	c0.3399935,0,0.6699171,0.0200175,0.989893,0.0700004C4.5695572,0.580151,1.3499037,4.1297894,1.3499037,8.4293537z"/>
<path class="st2" d="M10.3740005,9.519001c-1.2050152,1.4494705-3.3569016,1.6476421-4.8063731,0.442627
	c-0.1607895-0.1336727-0.3089547-0.2818375-0.442627-0.442627C4.8537722,9.2059383,4.3801107,9.1720257,4.0670485,9.4432545
	c-0.3041899,0.2635403-0.3461368,0.7201996-0.095048,1.0347462c1.7400966,2.086256,4.8419671,2.3668728,6.9282231,0.6267776
	c0.2273626-0.1896381,0.4371395-0.399416,0.6267767-0.6267776c0.2584124-0.3237209,0.2054691-0.7956352-0.1182528-1.0540466
	C11.0942001,9.1728649,10.6375418,9.2148113,10.3740005,9.519001z M4.2649999,6.3430004
	c0.1798205-0.3880672,0.5572157-0.6469517,0.9840002-0.6750002c0.4267845,0.0280485,0.8041797,0.2869329,0.9840002,0.6750002
	l0.3000002,0.5310001C6.5899382,6.9771013,6.71175,7.0256586,6.8240004,6.9900007
	C6.9365592,6.9555731,7.0098562,6.8472919,7,6.7299995C6.9000001,5.415,5.993,4.5,5.2490001,4.5S3.5999999,5.415,3.5,6.7299995
	c-0.0079811,0.1171856,0.0657389,0.224452,0.178,0.2589998C3.7900984,7.021122,3.9097404,6.9734297,3.9689999,6.8729992
	L4.2649999,6.3430004z M10.2489996,4.5c-0.7440004,0-1.6470003,0.9160004-1.75,2.2309999
	c-0.011694,0.1381292,0.0908012,0.2595854,0.2289305,0.2712793C8.825985,7.010581,8.9198456,6.9608183,8.9679995,6.875
	l0.3000002-0.5310001c0.1798201-0.3880672,0.5572157-0.6469517,0.9840002-0.6750002
	c0.4267845,0.0280485,0.8041801,0.2869329,0.9840002,0.6750002L11.5360003,6.875
	c0.0569372,0.1031008,0.17875,0.1516581,0.2910004,0.1160002C11.9387579,6.9553604,12.0107069,6.8468122,12,6.7299995
	C11.8999996,5.415,10.9919996,4.5,10.2489996,4.5z"/>
</svg>
